<?xml version="1.0" encoding="UTF-8" standalone="no"?>
<!-- Created with Inkscape (http://www.inkscape.org/) -->

<svg
   width="209.94745mm"
   height="181.99255mm"
   viewBox="0 0 209.94745 181.99255"
   version="1.1"
   id="svg1"
   xml:space="preserve"
   inkscape:version="1.3.2 (091e20ef0f, 2023-11-25)"
   sodipodi:docname="logo.svg"
   xmlns:inkscape="http://www.inkscape.org/namespaces/inkscape"
   xmlns:sodipodi="http://sodipodi.sourceforge.net/DTD/sodipodi-0.dtd"
   xmlns="http://www.w3.org/2000/svg"
   xmlns:svg="http://www.w3.org/2000/svg"><sodipodi:namedview
     id="namedview1"
     pagecolor="#ffffff"
     bordercolor="#000000"
     borderopacity="0.25"
     inkscape:showpageshadow="2"
     inkscape:pageopacity="0.0"
     inkscape:pagecheckerboard="0"
     inkscape:deskcolor="#d1d1d1"
     inkscape:document-units="mm"
     inkscape:zoom="0.70710678"
     inkscape:cx="383.25188"
     inkscape:cy="410.12193"
     inkscape:window-width="1920"
     inkscape:window-height="1011"
     inkscape:window-x="0"
     inkscape:window-y="0"
     inkscape:window-maximized="1"
     inkscape:current-layer="g2" /><defs
     id="defs1" /><g
     inkscape:label="Camada 1"
     inkscape:groupmode="layer"
     id="layer1"
     transform="translate(-22.162842,4.090702)"><g
       id="g2"
       transform="translate(14.028264,-22.710862)"><path
         id="path9"
         style="display:inline;fill:#e9c6af;stroke:none;stroke-width:2;stroke-linecap:round;stroke-linejoin:round;stroke-dasharray:none;stroke-opacity:1;paint-order:stroke fill markers"
         inkscape:label="brdr"
         d="m 177.58594,21.542969 c -1.94587,0.406354 -2.79279,2.41928 -4.03191,3.746936 -2.6985,3.455389 -5.51668,6.828581 -8.0942,10.371986 -0.48699,1.291435 0.65594,2.409968 1.61327,3.094489 2.38799,1.866503 4.67002,3.963701 7.40263,5.309488 1.38255,0.204779 2.22309,-1.121723 2.892,-2.105977 2.96361,-3.914479 6.25856,-7.584704 9.00922,-11.655203 0.49392,-1.255711 -0.38486,-2.546474 -1.43377,-3.186324 -2.21681,-1.880969 -4.31024,-3.951746 -6.76154,-5.524614 -0.19396,-0.05045 -0.39596,-0.06937 -0.5957,-0.05078 z m -23.25,7.847656 c -1.64089,0.325666 -2.1099,2.134383 -3.00989,3.299731 -2.47701,4.045333 -5.23209,7.929598 -7.47449,12.112378 -0.36532,1.268404 0.63465,2.463817 1.77204,2.883883 2.63976,1.587239 5.16893,3.439998 8.06504,4.535852 1.34158,0.134311 2.02248,-1.237463 2.62007,-2.202995 2.71582,-4.308057 5.70427,-8.463484 8.04481,-12.994083 0.32628,-1.250931 -0.80135,-2.196928 -1.79155,-2.703465 -2.5229,-1.702263 -4.89503,-3.707475 -7.72017,-4.898098 -0.16755,-0.02951 -0.33577,-0.04263 -0.50586,-0.0332 z m 23.45117,1.390625 c 0.37422,0.118978 -0.18881,0.260053 -0.041,-0.02734 z m 19.24414,2.326172 c -1.80068,0.477218 -3.09934,1.934375 -4.70251,2.807585 -3.33155,2.279847 -6.80617,4.377542 -9.94493,6.920092 -0.8288,1.131698 0.001,2.518023 0.6964,3.482267 1.5789,2.352442 3.04093,4.821948 4.86041,7.003335 1.13846,0.785073 2.46932,-0.08182 3.4168,-0.766013 4.09383,-2.590727 8.32406,-4.995771 12.22461,-7.871094 0.83117,-1.057272 0.16061,-2.43135 -0.55029,-3.346411 -1.57063,-2.615267 -2.99623,-5.330281 -4.72348,-7.843457 -0.32862,-0.322804 -0.8329,-0.404282 -1.27701,-0.386304 z m -36.66016,4.291016 c 0.0568,0.301351 -0.40511,0.299271 -0.25,0 0.0733,0.02408 0.2028,-0.03674 0.25,0 z m -4.66992,0.294921 c 0.28376,0.002 0.44016,0.799907 0.0762,0.492188 -0.0849,-0.114509 -0.1943,-0.37133 -0.0762,-0.492188 z m -52.48828,4.195313 c -9.807093,0.128606 -19.507637,2.368977 -28.636792,5.877198 -14.007134,5.491054 -26.458557,14.972133 -35.275082,27.18394 -9.749885,13.357474 -15.269148,29.80836 -15.23626,46.36776 -0.03382,15.44732 4.321916,30.95415 12.759463,43.92462 0.588943,1.09655 2.324289,1.25091 2.976562,0.13086 0.606815,-0.94271 0.396358,-2.15244 0.953778,-3.12442 1.357507,-3.31045 4.556439,-5.69848 8.064139,-6.26297 1.097788,-0.3846 1.399875,-1.70591 1.16126,-2.73249 -0.140219,-2.18903 -0.239842,-4.54896 0.958688,-6.49226 1.31994,-2.716 3.862963,-4.68239 6.578932,-5.75505 1.475692,-0.94965 1.134608,-2.90221 1.705535,-4.33757 1.588361,-5.32442 5.721876,-9.88042 10.792536,-12.22264 3.032592,-1.1494 5.63797,-3.11574 8.232804,-5.01324 9.863414,-6.81653 19.727485,-13.63437 29.527617,-20.541516 0.69705,-0.477892 1.443,-0.968026 1.66338,-1.840113 0.47783,-1.321709 0.66158,-2.799978 1.6438,-3.878983 1.70417,-2.490464 4.47974,-4.102136 7.41312,-4.671931 1.21454,-0.339819 2.21503,-1.340814 2.41363,-2.605207 0.35417,-1.237616 1.18154,-2.233194 2.01884,-3.173567 0.87169,-1.082597 1.18159,-2.467495 1.24108,-3.824609 0.89246,-5.50776 5.49224,-9.979966 10.82836,-11.304666 1.46164,-0.458273 3.13446,-0.25743 4.47047,-1.07424 1.12134,-0.898897 1.19962,-2.448939 1.80509,-3.664246 1.18086,-3.036124 2.6421,-6.009374 3.8121,-9.070129 0.21949,-1.287739 -0.918,-2.276354 -2.02104,-2.662619 -11.85099,-6.584624 -25.53589,-9.462678 -39.03362,-9.238065 -0.2728,0.0021 -0.54559,0.0041 -0.81839,0.0062 z m 49.76758,0.443359 c 0.38323,0.204066 -0.29964,0.927237 -0.42969,0.44336 0.0392,-0.203133 0.20473,-0.438533 0.42969,-0.44336 z m 47.14844,0.367188 c 0.13124,0.40673 -0.42859,0.241367 -0.2793,-0.07227 0.0931,0.02409 0.1862,0.04818 0.2793,0.07227 z m -29.96485,0.646484 c -1.46735,0.05441 -2.04901,1.600546 -2.9767,2.480887 -1.423,1.77139 -3.06939,3.473943 -3.91481,5.611158 -0.0911,1.514684 1.37033,2.379291 2.32695,3.301239 0.98703,0.715806 2.45973,0.302618 3.01866,-0.754618 1.77468,-2.088038 3.74903,-4.050396 5.19297,-6.393621 0.3703,-1.357825 -0.89892,-2.339681 -1.7574,-3.168564 -0.48643,-0.543751 -1.09714,-1.143993 -1.88967,-1.076481 z m 20.81446,1.169922 c 0.23825,0.106616 0.0856,0.413285 -0.11329,0.179687 -0.14094,-0.140561 -0.0972,-0.202096 0.11329,-0.179687 z m -12.51563,2.580078 c -1.52105,0.339614 -2.39603,1.776145 -3.5871,2.657799 -2.12517,2.008065 -4.39713,3.913679 -6.20716,6.21453 -0.47743,1.304617 0.66726,2.379917 1.53231,3.18027 1.33567,1.292704 2.4137,2.976955 4.13109,3.787245 1.57799,0.125977 2.54028,-1.354726 3.67878,-2.184712 2.24615,-2.01323 4.71301,-3.845639 6.60284,-6.208556 0.47717,-1.272807 -0.64065,-2.325182 -1.46626,-3.12587 -1.38801,-1.436287 -2.35352,-3.408218 -4.21966,-4.295315 -0.1542,-0.02411 -0.30891,-0.03292 -0.46484,-0.02539 z m 29.2793,3.5 c -5.51041,1.052343 -11.02116,2.140956 -16.47657,3.445313 -1.02956,0.350982 -1.78169,1.504524 -1.34886,2.575291 0.6373,3.124126 1.18437,6.267729 1.9414,9.365794 0.15884,0.844195 0.75876,1.604115 1.66332,1.66829 1.35892,0.118139 2.63813,-0.519831 3.96974,-0.695116 4.165,-0.914477 8.34927,-1.756094 12.52573,-2.603043 1.41269,-0.667204 1.44939,-2.498226 1.1061,-3.811216 -0.46702,-3.019843 -0.89664,-6.063505 -1.6875,-9.015625 -0.34286,-0.58306 -1.00713,-0.985551 -1.69336,-0.929688 z m -57.67969,1.974609 c -1.55663,0.333612 -1.91366,2.072217 -2.57827,3.272833 -1.81999,3.715773 -3.76954,7.42841 -4.81431,11.451777 -0.0296,1.44113 1.39411,2.236658 2.58203,2.638672 1.15497,0.594176 2.74946,-0.02064 3.04457,-1.329253 1.99152,-4.049273 4.06931,-8.071842 6.52391,-11.858781 0.39767,-1.2977 -0.82951,-2.277239 -1.80779,-2.872893 -0.87651,-0.621253 -1.79074,-1.44099 -2.95014,-1.302355 z m 10.10547,0.376954 c -1.48596,0.23314 -2.09233,1.78104 -3.06131,2.729672 -2.22282,2.808152 -4.68738,5.462388 -6.50821,8.560768 -0.46285,1.004722 0.13071,2.161212 1.06097,2.641883 1.95659,1.511337 3.77351,3.240697 5.88463,4.528247 1.32856,0.322964 2.25998,-0.898426 3.0046,-1.792106 2.61086,-2.978989 5.53623,-5.766751 7.80855,-9.04657 0.47275,-1.357621 -0.87723,-2.439135 -1.79114,-3.106201 -1.89345,-1.54274 -3.69457,-3.2556 -5.82585,-4.466493 -0.18193,-0.0804 -0.37952,-0.0554 -0.57224,-0.0492 z m 37.75976,6.541015 c 0.17069,0.0129 -0.0701,0.08937 0,0 z m -12.21289,0.919922 c -3.82961,1.237418 -7.51083,2.942716 -11.02099,4.899346 -0.99412,0.945907 -0.36235,2.420796 0.28786,3.372663 0.494,1.20878 1.97176,2.293805 3.25657,1.540491 3.27147,-1.367351 6.61998,-2.577034 9.81846,-4.101355 1.01746,-0.910735 0.51975,-2.408794 0.0597,-3.476282 -0.382,-1.045201 -1.06907,-2.411272 -2.4016,-2.234863 z m -15.84765,6.212891 c -2.94674,1.098572 -5.31597,3.277203 -7.88477,5.029297 -1.77582,1.390993 -3.71833,2.653667 -5.16189,4.402073 -0.5308,1.292907 0.60046,2.379703 1.32476,3.309752 0.69477,1.025967 2.30856,1.412307 3.21097,0.430796 3.76695,-2.627672 7.63321,-5.110393 11.46405,-7.640668 0.92849,-0.827752 0.53114,-2.258728 -0.21695,-3.064869 -0.71528,-0.946792 -1.34113,-2.498957 -2.73617,-2.466381 z m 41.70898,4.330078 c -5.35632,0.088 -10.72235,-0.08309 -16.07383,0.09742 -1.29368,0.379279 -1.5325,1.968991 -1.23251,3.104044 0.27249,3.208826 0.0742,6.446711 0.34444,9.649055 0.50949,1.293667 2.11886,1.280191 3.28221,1.188542 5.11466,-0.04657 10.24135,0.11077 15.34805,-0.111648 1.32141,-0.47263 1.41614,-2.089271 1.40182,-3.280746 0.0777,-3.15596 0.0212,-6.328646 -0.29993,-9.465853 -0.41402,-1.102274 -1.75539,-1.247647 -2.77025,-1.180815 z m -23.95312,0.146484 c -4.99667,1.214748 -10.02121,2.324036 -14.99414,3.638672 -1.17363,0.60837 -1.04064,2.1567 -0.68715,3.225622 0.75484,2.688305 1.04142,5.544541 2.23476,8.08576 1.06626,1.119356 2.70633,0.528932 3.9895,0.221821 4.12319,-1.035828 8.3559,-1.650605 12.45384,-2.82759 1.17426,-0.690465 0.95151,-2.245259 0.67981,-3.3645 -0.60277,-2.790095 -0.79433,-5.734848 -2.02623,-8.341113 -0.41482,-0.454241 -1.04377,-0.668298 -1.65039,-0.638672 z m -50.04883,0.302735 c -4.6496,0.283379 -8.98275,4.296312 -9.03175,9.06286 -0.0704,1.343402 0.11302,2.722679 -0.11864,4.042608 -0.7098,0.384682 -1.51635,0.538544 -2.1474,1.051563 -1.96927,1.287706 -3.33392,3.462528 -3.62799,5.798047 -0.36389,0.471991 -0.99219,0.777652 -1.5586,0.873047 -1.36372,-0.354245 -2.82374,-0.39724 -4.14791,0.143438 -3.13538,1.187274 -5.15183,4.598473 -4.93998,7.901486 -0.52219,0.81059 -1.55461,1.06494 -2.239,1.71545 -11.380888,7.81715 -22.556672,15.94316 -34.190386,23.38472 -3.780099,2.18053 -8.008109,3.88513 -10.907628,7.28511 -2.499997,2.71371 -3.772299,6.35743 -3.997112,10.00287 -0.09222,0.64565 -0.01926,1.36056 -0.183449,1.96536 -0.85712,0.3311 -1.791869,0.54286 -2.53861,1.1301 -2.822531,1.93558 -4.011781,6.07552 -2.255073,9.09919 0.506271,1.11448 1.451156,1.95494 2.28587,2.78829 0.136814,0.62079 -0.03684,1.25571 -0.0293,1.87891 -0.656798,0.3444 -1.476959,0.0575 -2.195582,0.16867 -3.542241,0.0601 -7.101143,-0.0831 -10.631709,0.17936 -1.262774,0.48631 -1.291663,2.05297 -1.1981,3.19298 0.0091,5.1178 0.0013,10.23569 0.0039,15.35352 -0.466453,0.32518 -0.95169,-0.26227 -1.457031,-0.25586 -3.997937,-0.96757 -8.46737,1.5193 -9.742048,5.43488 -0.185063,0.37488 -0.177202,1.23436 -0.795061,1.01043 -3.665182,-1.08819 -7.932432,0.46773 -9.961953,3.72797 -0.577956,0.80907 -0.960182,1.75039 -1.350547,2.64508 -0.820415,0.15021 -1.689825,-0.0224 -2.517579,0.19726 -2.442536,0.41331 -4.50864,1.99322 -6.064453,3.84766 -0.848944,1.12015 0.26412,2.704 1.552735,2.71484 4.411583,-0.0922 8.841796,-0.0185 13.260937,-0.0408 48.601516,-0.001 97.203309,0.054 145.804609,-0.0854 2.25333,-0.0505 4.52549,-0.0105 6.75867,-0.3308 1.21494,-0.44318 1.46462,-2.25985 0.4177,-3.01924 -1.61972,-2.0943 -4.26789,-3.40072 -6.93528,-3.14287 -0.54366,0.0717 -1.01219,-0.18388 -1.18778,-0.70111 -1.2467,-1.87172 -3.61146,-2.93571 -5.83175,-2.5899 -0.48447,-0.64366 -0.64827,-1.51189 -1.20745,-2.132 -1.52099,-2.10946 -4.34153,-2.96609 -6.81598,-2.54574 -0.76864,0.29689 -0.89668,-0.66242 -1.22657,-1.11328 -1.58305,-2.38443 -4.57548,-3.93669 -7.44355,-3.27485 -1.03367,0.13118 -1.96604,0.66636 -2.91582,1.01704 -0.83805,-0.36411 -1.57807,-0.95899 -2.5037,-1.13003 -1.70366,-0.44999 -3.53538,-0.23052 -5.17208,0.32534 -0.47117,-0.27368 0.0208,-1.10773 -0.0745,-1.61155 0.41465,-5.0151 -0.30211,-10.24866 -2.85857,-14.65144 -1.90408,-3.45402 -4.67722,-6.39011 -7.93291,-8.60238 -0.39846,-0.72883 -0.0363,-1.66219 -0.16544,-2.4733 -0.0275,-5.00837 0.0593,-10.02494 -0.0863,-15.02792 -0.39938,-1.32274 -2.00529,-1.43959 -3.16566,-1.35371 -0.55156,-0.0364 -1.23249,0.0746 -1.697,-0.0941 -0.0112,-0.50612 0.75305,-0.6088 1.01933,-0.99327 3.47322,-2.74711 6.8293,-5.6228 10.42793,-8.1747 1.43395,-0.308 3.0396,-0.55134 4.32805,-1.41685 2.10182,-1.2263 3.51913,-3.47548 3.82039,-5.87612 0.5815,-1.06358 1.75092,-1.60593 2.61471,-2.41072 1.13402,-0.82887 2.19634,-1.8281 3.44388,-2.45842 0.93911,0.0751 1.81348,0.50162 2.75846,0.58757 3.1835,0.6734 6.57288,0.19101 9.43653,-1.35561 3.39717,-1.75369 6.12994,-5.14669 6.32845,-9.06399 0.35531,-4.671089 -1.64533,-9.119561 -3.92388,-13.073654 -3.54607,-5.999879 -8.44801,-11.103637 -13.83504,-15.4789 -3.28338,-2.455122 -7.28105,-4.247178 -11.45592,-4.047055 z m 71.71484,7.214843 c 0.57297,0.208445 -0.42821,1.0247 -0.42773,0.417969 0.0459,-0.188842 0.20942,-0.431592 0.42773,-0.417969 z m -30.07031,0.642578 c 0.39466,0.190498 -0.13538,0.31972 -0.19141,0.03711 0.0554,-0.03632 0.12678,-0.04475 0.19141,-0.03711 z m -10.0918,0.570313 c -1.85497,0.57894 -3.59628,1.534034 -5.24804,2.558594 -0.75619,0.579993 -1.95746,1.039545 -1.87305,2.183984 0.0614,1.170945 0.86453,2.157477 1.60403,3.001288 0.78312,0.761237 2.04924,0.871956 2.95083,0.26003 1.71649,-0.733172 3.53392,-1.282255 5.16728,-2.180169 1.04334,-1.09382 0.36771,-2.690895 -0.22012,-3.832102 -0.44644,-0.950658 -1.17118,-2.100333 -2.38093,-1.991625 z m 41.9336,1.425781 c 0.29353,0.01044 0.0432,0.512468 -0.12891,0.238282 -0.0318,-0.08962 -0.0285,-0.300942 0.12891,-0.238282 z m -23.08008,5.109375 c -1.3499,0.263769 -1.6613,1.804889 -1.79279,2.958739 -0.58786,3.148648 -1.48943,6.281828 -1.56559,9.494813 0.41498,1.386637 2.03882,1.562297 3.24119,1.806217 4.81414,1.01121 9.58626,2.25672 14.42416,3.13338 1.39803,-0.11508 1.86105,-1.68348 1.99766,-2.85765 0.6079,-3.102003 1.48475,-6.181094 1.7253,-9.335971 -0.32854,-1.373518 -1.90571,-1.613078 -3.07415,-1.847288 -4.91447,-1.164129 -9.80382,-2.48192 -14.77414,-3.375677 l -0.0992,0.0128 z m -6.75977,3.789063 c -4.00691,0.399701 -8.05995,0.753689 -11.95343,1.809589 -1.13002,0.721966 -0.84276,2.228835 -0.46364,3.291064 0.16524,1.126674 0.92037,2.526736 2.25301,2.348565 3.70517,-0.266353 7.4075,-0.34794 11.1162,-0.621838 1.27711,0.06116 1.88971,-1.371916 1.69044,-2.464099 -0.27295,-1.266105 -0.0818,-2.743683 -0.95312,-3.800781 -0.4247,-0.481404 -1.0766,-0.607542 -1.68946,-0.5625 z m 18.22071,6.6875 c 0.51535,0.145737 -0.0811,0.734652 -0.36329,0.357422 -0.29172,-0.199989 0.17941,-0.429329 0.36329,-0.357422 z m 1.72656,2.726562 c 0.36955,0.152269 -0.1293,0.459064 -0.34766,0.308594 -0.4364,-0.121001 0.20548,-0.381849 0.34766,-0.308594 z m -20.7832,0.296875 c -2.81731,0.112648 -5.65787,-0.06014 -8.45932,0.250689 -1.2536,0.5255 -1.22504,2.09513 -1.15983,3.23759 -0.0374,1.67141 -0.40992,3.30628 -0.99243,4.76949 -1.9648,4.99076 -6.51612,8.69893 -11.63812,10.10094 -3.11438,0.92418 -6.42955,0.99961 -9.6214,0.48309 -1.46071,0.0258 -1.96641,1.60408 -2.46784,2.70685 -1.76712,3.5952 -5.13383,6.15077 -8.78384,7.63832 -2.09251,1.02187 -4.11589,2.28598 -5.7366,3.96928 -0.68224,1.29864 -0.18603,2.79938 -0.34375,4.18945 0.0167,5.0298 -0.0418,10.06612 0.0609,15.09174 0.6344,1.75361 2.47334,2.61154 3.51185,4.08563 3.88864,4.33787 6.32128,10.00983 6.51476,15.85366 0.0214,1.01802 0.35052,2.19503 1.42007,2.56403 1.26396,0.71503 2.68979,1.30522 4.17,1.02685 2.78606,-0.40281 5.82264,-0.60965 8.37866,0.7977 1.82204,0.92229 3.25917,2.41729 4.95162,3.51985 1.34947,0.40602 2.36077,-0.80102 3.14269,-1.70324 5.80819,-5.96893 10.91003,-12.69355 14.54816,-20.2105 8.32788,-16.77869 10.93362,-36.49686 6.50322,-54.75622 -0.26441,-1.38285 -0.73888,-3.06728 -2.25184,-3.531278 -0.56362,-0.163315 -1.16834,-0.07106 -1.74691,-0.08392 z" /><path
         id="path3"
         style="display:inline;fill:#4e9650"
         d="m 138.48464,75.702296 c -2.68181,1.761784 -1.81547,6.035394 -0.0327,9.626161 2.64895,5.335491 7.03019,12.308456 11.64511,15.575923 0.90528,0.64096 -0.42521,1.15778 -3.48054,-1.729745 -3.07517,-2.906283 -5.38532,-7.032947 -7.37725,-10.311734 -1.29714,-2.135122 -3.3829,-6.978623 -3.60598,-8.373649 -0.092,-0.575472 -0.2582,-0.989654 -0.36949,-0.920874 -0.11128,0.06878 -0.35826,0.908985 -0.5488,1.867586 -0.31787,1.769707 -2.35916,1.2929 -1.79214,2.910734 2.75357,7.244739 10.59787,16.562872 17.72921,21.574352 4.39317,3.08724 9.51336,2.89701 12.01729,1.42961 5.33506,-3.12655 0.80165,-15.245988 -9.48107,-25.346255 -6.58671,-6.469833 -10.24686,-9.229922 -14.70362,-6.302109 z m -4.28734,13.625149 -0.4549,1.324494 -0.75861,0.630969 c -0.41737,0.347083 -1.15448,0.804355 -1.63762,1.016476 -0.80438,0.353156 -0.86301,0.457502 -0.6966,1.23455 0.1,0.466728 0.57159,1.890325 1.048,3.163631 0.47641,1.273306 0.80412,2.315104 0.72812,2.315104 -0.076,0 -0.53928,-0.424962 -1.0294,-0.944645 -0.7736,-0.820259 -0.66783,0.187293 -0.84879,0.627257 l -0.22531,0.54777 3.45391,5.961199 c 0.72993,0.90951 2.14365,1.74592 2.18116,1.74592 0.0375,0 -0.32944,-0.98226 -0.81546,-2.18281 -3.50169,-8.649905 -3.3849,-7.490753 -0.93276,-9.27644 0.80054,-0.58296 2.01879,-1.148625 2.07013,-1.189055 z m -8.71588,7.048693 c 0.7063,1.88864 0.86842,1.625927 -2.35541,3.808552 -1.26873,0.85897 -2.38633,1.43839 -2.60914,1.35289 -0.30691,-0.11777 -0.35394,0.006 -0.22273,0.58084 0.14057,0.61626 2.25081,5.239 3.08147,6.74998 h 5.1e-4 c 0.16024,0.292 0.16115,0.46302 0.002,0.46302 -0.94173,0 -4.22459,-3.36906 -6.64604,-8.42424 1.24045,5.3173 8.65027,15.67295 13.15616,18.59778 1.73136,1.12386 4.07383,1.98513 5.37952,1.97817 l 1.19062,-0.006 -1.19062,-0.41445 c -1.57009,-0.54582 -3.14511,-1.72527 -5.52008,-4.13411 -3.04364,-3.08707 -7.17746,-9.17858 -6.83473,-10.07174 0.0696,-0.18146 1.39006,-1.20277 2.93419,-2.26911 l 2.80758,-1.93838 -0.49299,-0.82631 c -0.94232,-1.57985 -1.60335,-2.953946 -2.30684,-4.795055 z m -10.36888,9.640242 c -0.0471,0.0415 -1.51453,1.04591 -3.26078,2.2319 -1.74625,1.18599 -5.2586,3.58428 -7.80521,5.32939 -2.54661,1.74512 -5.939895,4.06912 -7.540622,5.16454 -1.600727,1.09543 -3.208073,2.21393 -3.571875,2.48564 -0.363802,0.27171 -3.188643,2.24005 -6.277653,4.37389 -5.51476,3.80955 -6.947548,5.0263 -6.955648,5.90869 -0.0022,0.2435 -0.130636,0.62146 -0.285254,0.83974 -0.02583,0.0365 -0.04268,0.0285 -0.06201,0.0326 0.142924,0.89614 0.448534,2.0237 1.038179,3.8995 0.08062,0.25647 0.435938,0.0977 1.23455,-0.55139 0.61682,-0.50128 3.800289,-2.7231 7.074504,-4.93768 11.961319,-8.09027 15.474149,-10.49808 25.977739,-17.8077 l 3.35535,-2.33526 -1.0852,-1.78387 c -0.59704,-0.98106 -1.425,-2.53061 -1.83968,-3.4432 z m -35.759053,26.36635 c -71.218909,-113.76257 -71.218909,-113.76257 0,0 z m -14.451795,14.94401 c 0.08335,0 0.46791,-0.24591 0.854728,-0.54622 0.386817,-0.30032 3.293086,-2.33484 6.45852,-4.52169 3.606121,-2.49129 6.20262,-4.09088 6.092741,-4.28294 -1.063857,-1.86618 -1.565808,-3.93558 -2.285221,-5.91282 -0.04987,-0.0499 -1.37027,0.75885 -2.934188,1.79731 -3.477899,2.30936 -5.571885,4.3418 -6.714319,6.5164 -0.476381,0.90679 -1.088436,2.6332 -1.360123,3.83646 l -0.494027,2.18746 z m -17.05076,17.55706 0.103958,5.52286 c 0,3.46823 0.0792,6.38528 0.176217,6.48229 0.222491,0.22249 2.14024,0.22888 3.230294,0.0109 0.987434,-0.19748 2.498074,-2.02674 1.548326,-2.02674 -0.901583,0 -2.353514,0.67594 -2.257844,-4.30207 l 0.08113,-4.22145 11.498523,-0.0739 c 12.098272,-0.0776 11.904056,-0.057 11.912968,-1.27279 0.004,-0.54377 -0.176537,-0.72928 -7.637465,-0.90133 z"
         sodipodi:nodetypes="cscssssscsssacccscssssccscsccccscccscscccsccccccccsssccscscscccccccccsscssccccccssssccccc"
         inkscape:label="green" /><path
         style="display:inline;fill:#022e2c;stroke:none;stroke-width:2;stroke-linecap:round;stroke-linejoin:round;stroke-dasharray:none;stroke-opacity:1;paint-order:stroke fill markers"
         d="m 14.520315,194.77981 c 1.753738,-1.6537 3.567705,-2.31399 5.80079,-2.11149 l 1.481396,0.13433 0.270093,-1.00305 c 0.602075,-2.23594 2.215277,-4.25043 4.227304,-5.27887 1.6621,-0.84957 4.772116,-0.86838 6.178261,-0.0374 0.52806,0.31208 0.99748,0.56742 1.043153,0.56742 0.04567,0 0.16205,-0.53905 0.258613,-1.19788 0.521509,-3.5582 3.003304,-5.98904 6.432003,-6.29994 1.667836,-0.15123 3.558743,0.53561 4.671184,1.69675 l 0.688994,0.71915 0.976291,-0.50886 c 0.631963,-0.32941 1.6891,-0.55773 2.997345,-0.64741 l 2.021053,-0.13852 v -0.72052 -0.72052 h -3.026226 -3.026226 v -8.95259 -8.95259 l 6.619869,-0.0291 c 3.640928,-0.016 6.790094,-0.0443 6.998148,-0.063 0.300094,-0.027 0.392408,-0.50306 0.446645,-2.30363 l 0.06837,-2.26967 -0.743593,-0.41909 c -0.951093,-0.53606 -2.020492,-2.15075 -2.326538,-3.51287 -0.727684,-3.23868 1.794251,-6.52435 5.013927,-6.53233 0.537271,-9.5e-4 0.567417,-0.10072 0.567417,-1.87062 0,-2.58918 0.608037,-5.52685 1.534345,-7.41304 1.733034,-3.52887 4.534328,-5.97664 9.846719,-8.60406 3.497121,-1.72961 8.349523,-4.95729 26.351646,-17.52838 1.404052,-0.98047 5.063902,-3.52453 8.132982,-5.65346 l 5.58015,-3.87079 v -1.585442 c 0,-3.89646 3.71263,-7.061114 6.92221,-5.900512 0.72083,0.260655 1.01025,0.266595 1.34804,0.02767 0.23658,-0.167336 0.83946,-0.526422 1.33975,-0.797968 0.7844,-0.425771 0.93126,-0.651849 1.06707,-1.642654 0.21561,-1.573063 0.96511,-2.945296 2.17378,-3.979866 0.92758,-0.793978 2.43657,-1.454607 3.32257,-1.454607 0.28603,0 0.35249,-0.660282 0.34902,-3.467551 -0.004,-3.299314 0.0294,-3.531334 0.68875,-4.782214 1.4322,-2.716821 3.30173,-4.096207 6.24682,-4.609073 2.99087,-0.520838 7.05328,0.781012 10.81683,3.466388 2.22931,1.590661 7.19387,6.443382 9.4692,9.255884 6.79524,8.399489 9.44635,16.362285 7.06685,21.225795 -0.92287,1.88629 -2.6686,3.62795 -4.62762,4.61686 -3.18626,1.60842 -6.06979,1.91247 -9.51299,1.00311 -1.09713,-0.28977 -2.13474,-0.54511 -2.30581,-0.56743 -0.17107,-0.0223 -1.8965,1.20774 -3.83427,2.73346 -3.23195,2.54469 -3.52419,2.84247 -3.5348,3.60174 -0.014,1.00127 -0.57217,2.3984 -1.38284,3.46125 -0.85512,1.1211 -3.35185,2.39222 -4.71647,2.40121 -1.03522,0.007 -1.36503,0.22144 -5.63887,3.66968 -2.49664,2.01435 -5.99886,4.81981 -7.78271,6.23435 l -3.24337,2.57191 4.06298,0.0693 4.06296,0.0693 0.007,9.00938 0.007,9.00939 1.52368,1.00874 c 0.83802,0.5548 2.35157,1.87092 3.36343,2.92469 2.985,3.10867 4.93459,6.88882 5.82742,11.29908 0.5757,2.84383 0.40267,8.38776 -0.34688,11.11395 -0.51589,1.87631 -0.50674,2.60025 0.0208,1.64402 0.48422,-0.87777 2.00882,-2.12041 3.12409,-2.54634 0.74302,-0.28376 1.5904,-0.37924 2.72461,-0.30702 1.36172,0.0867 1.85163,0.24963 2.83512,0.94286 0.95083,0.67021 1.26729,0.78025 1.58014,0.54944 1.84605,-1.36191 4.4997,-1.70781 6.25032,-0.81471 1.26735,0.64655 2.76158,2.35773 3.12864,3.58288 l 0.27667,0.92344 1.16805,-0.36121 c 1.88558,-0.58311 4.45982,0.0346 5.61496,1.34739 0.62277,0.70776 1.47944,2.52195 1.47944,3.13304 0,0.41744 0.10105,0.49936 0.44133,0.35779 2.06491,-0.85909 4.59206,-0.0101 5.53539,1.85957 l 0.55472,1.09947 2.09322,0.0425 c 1.44108,0.0293 2.34752,0.17925 2.90942,0.4814 1.01415,0.54534 2.52427,1.85609 2.85901,2.48154 0.24501,0.45782 -1.86304,0.46955 -82.789526,0.46058 l -83.040947,-0.01 z m 52.555887,-3.20358 c 4.275896,-1.11594 7.383984,-4.90011 7.638708,-9.30031 0.252708,-4.36538 -1.543462,-7.95518 -5.127599,-10.24793 -1.734201,-1.10935 -3.167945,-1.44251 -5.712611,-1.32746 -3.710338,0.16777 -6.673363,2.12563 -8.380154,5.5373 -1.231203,2.46103 -1.542833,4.1774 -1.182491,6.51282 0.495581,3.21191 2.001362,5.67369 4.551248,7.44077 2.049203,1.42009 5.711566,2.03763 8.212899,1.38481 z m -3.596601,-4.28007 c -1.3235,-0.18961 -2.959943,-1.30731 -3.925498,-2.68113 -0.854617,-1.21597 -1.186034,-3.7042 -0.69254,-5.1995 1.380911,-4.18421 6.476331,-5.58508 9.560712,-2.62852 1.337426,1.282 1.893013,2.58356 1.905313,4.46351 0.02491,3.80707 -3.116338,6.58026 -6.847987,6.04564 z m 2.266759,-4.46948 c 0.638153,-0.72672 0.753595,-1.49637 0.343421,-2.28955 -0.780824,-1.50995 -2.559289,-1.4218 -3.40675,0.16886 -0.364944,0.68498 0.0068,1.89927 0.706506,2.30813 0.666619,0.38951 1.939061,0.28831 2.356823,-0.18744 z m 34.87051,7.37025 c 7.43484,-1.66405 13.57005,-7.81029 15.70754,-15.73576 0.8797,-3.26177 0.92765,-8.66003 0.10377,-11.68126 -1.24056,-4.54919 -2.62408,-7.02912 -5.5978,-10.03395 -3.35532,-3.39042 -6.36398,-5.07726 -10.57927,-5.93139 -2.844409,-0.57635 -7.216466,-0.39896 -9.721657,0.39446 -5.723053,1.81252 -10.563439,6.04678 -13.162349,11.51412 -3.310664,6.96465 -2.728197,15.69805 1.47763,22.1553 4.899799,7.52272 13.448325,11.18149 21.772136,9.31848 z m -6.935098,-4.58129 c -2.480813,-0.41528 -5.883419,-2.08936 -7.900215,-3.8869 -1.804356,-1.6082 -4.072426,-5.00814 -4.907548,-7.35662 -0.940157,-2.64387 -1.094755,-7.52183 -0.333767,-10.53112 1.448407,-5.72768 6.729039,-10.89449 12.33434,-12.06847 1.897423,-0.3974 5.483448,-0.3465 7.247978,0.1029 4.4295,1.12809 8.10117,4.25617 10.35508,8.82197 1.80059,3.64753 2.29553,7.41907 1.51142,11.51725 -1.20304,6.28775 -6.60845,11.91586 -12.679878,13.20232 -1.618432,0.34292 -4.217506,0.43468 -5.62741,0.19867 z m -0.155785,-5.18472 c 0.369438,-1.5604 0.733769,-3.0721 0.809625,-3.35934 0.113429,-0.42952 -0.05226,-0.59695 -0.933167,-0.94298 -0.589097,-0.23141 -1.105116,-0.3867 -1.146709,-0.34512 -0.324947,0.32496 -2.787893,5.88587 -2.682439,6.0565 0.162223,0.26248 2.603469,1.42206 3.00122,1.42556 0.153871,9.6e-4 0.582032,-1.27422 0.95147,-2.83462 z m 7.956913,2.17366 c 0.84136,-0.36488 1.52974,-0.77562 1.52974,-0.91274 0,-0.25829 -2.69595,-5.47811 -2.98747,-5.78424 -0.271204,-0.2848 -2.056245,0.3935 -2.056245,0.78135 0,0.39483 1.496971,6.0868 1.680527,6.38991 0.157188,0.25957 0.117861,0.26975 1.833448,-0.47428 z m -14.630278,-7.93549 c 1.398098,-0.84575 2.541997,-1.56897 2.541997,-1.60715 0,-0.0382 -0.227676,-0.58412 -0.505948,-1.21321 l -0.505948,-1.14377 -1.44849,0.34757 c -0.79667,0.19116 -2.10102,0.48717 -2.898557,0.6578 -0.797535,0.17063 -1.450066,0.38326 -1.450066,0.47249 0,0.57829 1.393986,4.02399 1.627937,4.02399 0.05339,0 1.240978,-0.69198 2.639075,-1.53772 z m 22.140908,-0.47116 c 0.3295,-0.88108 0.55039,-1.72889 0.49086,-1.88403 -0.0982,-0.25597 -5.42704,-1.78867 -5.58569,-1.60657 -0.0372,0.0426 -0.30671,0.55189 -0.59905,1.13173 l -0.53154,1.05423 2.58107,1.50684 c 1.41959,0.82876 2.68551,1.48275 2.81316,1.45331 0.12765,-0.0295 0.50169,-0.77442 0.83119,-1.65551 z m -11.339936,-0.39149 c 2.593716,-0.77025 4.224996,-3.68864 3.553166,-6.35671 -0.5471,-2.17271 -2.999077,-4.09776 -5.22606,-4.10298 -1.879344,-0.005 -3.952493,1.41348 -4.706976,3.21922 -1.029709,2.46445 0.0328,5.63421 2.280323,6.8029 1.689447,0.87849 2.370133,0.95115 4.099547,0.43757 z m -2.458709,-3.22185 c -1.957776,-0.99027 -1.271238,-3.80952 0.927684,-3.80952 2.009922,0 2.62623,2.83263 0.819578,3.7669 -0.861374,0.44543 -0.946772,0.44751 -1.747262,0.0426 z m -6.556823,-4.48932 c 0,-0.15196 0.246046,-0.62184 0.54677,-1.04417 0.536312,-0.75318 0.537518,-0.77469 0.06304,-1.12493 -0.860257,-0.63501 -4.82249,-2.85049 -5.097917,-2.85049 -0.275009,0 -1.28748,2.44642 -1.384043,3.34424 -0.04673,0.43448 0.293993,0.60059 2.46764,1.20299 2.848674,0.7895 3.404504,0.86662 3.404504,0.47236 z m 17.894978,-0.37975 c 1.32327,-0.36082 2.55685,-0.70118 2.74127,-0.75635 0.44111,-0.13193 0.18283,-1.33909 -0.6328,-2.95748 -0.58351,-1.15784 -0.64075,-1.20011 -1.16681,-0.86173 -0.30425,0.19571 -1.54727,0.96043 -2.76226,1.69938 -1.97197,1.19935 -2.17031,1.38657 -1.84799,1.74438 0.19859,0.22046 0.43896,0.71291 0.53415,1.09434 0.0952,0.38144 0.29805,0.69352 0.45078,0.69352 0.15273,0 1.36037,-0.29523 2.68366,-0.65606 z M 93.416977,161.324 c 1.092916,-0.0108 1.104918,-0.31109 0.151868,-3.79986 -0.505573,-1.85071 -0.955243,-3.40095 -0.999267,-3.44498 -0.151714,-0.15171 -3.174959,1.26259 -3.174959,1.48528 0,0.12271 0.689061,1.5977 1.531248,3.27775 1.13674,2.26765 1.604544,2.98136 1.815736,2.77017 0.156468,-0.15647 0.460385,-0.28623 0.675374,-0.28836 z m 8.149893,-2.4653 c 0.79991,-1.62405 1.45243,-3.08071 1.45006,-3.237 -0.002,-0.1563 -0.54334,-0.51477 -1.20217,-0.79662 -2.215007,-0.94756 -2.057285,-1.09168 -2.976639,2.71997 -0.841767,3.48998 -0.827869,3.76976 0.187709,3.77895 0.234543,0.002 0.496578,0.11736 0.582301,0.25606 0.08573,0.1387 0.234274,0.24752 0.330115,0.24182 0.09584,-0.006 0.828724,-1.33913 1.628624,-2.96318 z m 14.8116,31.4756 c 0,-0.36708 -0.79042,-2.27477 -0.94251,-2.27477 -0.0722,0 -0.54316,0.36882 -1.04668,0.8196 -0.50351,0.45078 -1.19816,1.01225 -1.54368,1.2477 -0.61512,0.41919 -0.58489,0.42837 1.45233,0.44133 1.19926,0.008 2.08054,-0.0914 2.08054,-0.23386 z m 5.57084,-1.81922 c 2.23029,-1.11122 5.38094,-4.29235 6.47631,-6.53895 0.44787,-0.91859 0.8143,-1.76981 0.8143,-1.89161 0,-0.24448 -5.79731,-1.6332 -7.07651,-1.69515 -0.71844,-0.0348 -0.84139,0.0646 -1.14482,0.92604 -0.18697,0.53077 -0.96826,2.01797 -1.73621,3.30491 l -1.39625,2.33987 0.92287,2.18013 c 0.50759,1.19908 1.05811,2.18014 1.22338,2.18014 0.16527,0 1.0279,-0.36243 1.91693,-0.80538 z m 8.13762,-14.09406 c -0.0424,-2.5564 -0.57466,-4.80115 -1.63492,-6.89508 -0.9479,-1.87203 -0.91194,-1.83406 -1.29522,-1.36726 -0.17194,0.20942 -1.18247,1.08792 -2.24563,1.95222 -2.1282,1.73017 -1.94749,1.3135 -2.36286,5.44796 l -0.15201,1.51311 3.48487,0.79202 c 1.91667,0.4356 3.65509,0.77267 3.86314,0.74904 0.30645,-0.0348 0.37151,-0.451 0.34263,-2.19201 z m -78.803844,1.62817 c 0.941166,-0.18822 1.067666,-0.85112 0.16242,-0.85112 -0.859337,0 -0.929955,-0.43622 -0.838727,-5.18098 l 0.07737,-4.0238 10.95968,-0.0703 c 11.531384,-0.074 11.346381,-0.0542 11.354875,-1.21306 0.0038,-0.51829 -0.113122,-0.52952 -7.224453,-0.69351 -3.975574,-0.0917 -9.593006,-0.16668 -12.483182,-0.16668 h -5.254868 v 6.01042 c 0,3.30572 0.07565,6.08608 0.168124,6.17854 0.212066,0.21206 2.039788,0.2183 3.078765,0.0105 z m 14.097112,-18.94543 0.06929,-4.09802 h 4.242038 4.242039 l 1.867213,-1.56479 c 1.026966,-0.86064 3.626206,-3.05329 5.776087,-4.87255 9.513881,-8.0508 8.879015,-7.59324 10.785489,-7.7733 0.933731,-0.0882 4.563151,-0.16115 8.065376,-0.16214 l 6.36769,-0.002 v 3.62318 3.62318 l 1.07179,0.69627 c 0.58948,0.38296 1.32713,0.92849 1.6392,1.21231 l 0.56742,0.51604 v -6.3486 -6.3486 h -9.97302 -9.973019 l -3.460585,2.83709 c -1.903321,1.5604 -4.97627,4.08541 -6.828775,5.61113 -1.852506,1.52571 -4.229677,3.48331 -5.282604,4.3502 l -1.914412,1.57615 h -5.241416 -5.241417 v 5.68621 5.68621 l 1.57616,-0.0751 1.576159,-0.0751 z m -5.812886,-6.17403 c -0.05613,-0.45326 -0.103207,-0.14322 -0.104623,0.68899 -0.0014,0.83222 0.0445,1.20308 0.10205,0.82413 0.05754,-0.37895 0.0587,-1.05985 0.0026,-1.51312 z m 6.838541,-5.00125 c 0.368692,-0.28625 3.138897,-2.22584 6.156009,-4.31022 3.437148,-2.37456 5.423241,-3.89889 5.31851,-4.08195 -0.319743,-0.55888 0.183122,0.0214 1.081438,1.24777 1.000276,1.36565 0.988587,1.23114 -0.177659,-2.0443 -0.665553,-1.86922 -0.830089,-2.76339 -0.932566,-5.06801 l -0.124431,-2.79835 -2.285241,1.24169 c -6.524044,3.54484 -8.661156,5.67714 -9.875037,9.85274 -0.623928,2.14623 -0.607756,6.48108 0.02418,6.48108 0.07944,0 0.446106,-0.23421 0.814799,-0.52045 z m 23.493136,-16.34704 c 11.400851,-7.71119 14.748871,-10.00628 24.760291,-16.97339 l 3.19844,-2.22584 -1.03466,-1.70016 c -0.56906,-0.93509 -1.35804,-2.41183 -1.75329,-3.28165 l -0.71865,-1.58149 -2.70606,1.8914 c -3.97164,2.77599 -11.878022,8.27502 -15.063155,10.4767 -13.102963,9.05724 -15.067714,10.47127 -15.262942,10.98477 -0.118855,0.31261 -0.29124,1.23254 -0.383079,2.04429 -0.157105,1.38863 0.0216,2.34755 1.043144,5.59732 0.07684,0.24445 0.415655,0.0932 1.176847,-0.52541 0.587917,-0.47779 3.622319,-2.59573 6.743114,-4.70654 z m 44.384651,-9.27403 c -1.49652,-0.52024 -2.99791,-1.64473 -5.2616,-3.9407 -2.90102,-2.94241 -6.84089,-8.74848 -6.51421,-9.59979 0.0663,-0.17295 1.32485,-1.14604 2.79663,-2.16242 l 2.67594,-1.84795 -0.46968,-0.78746 c -0.89816,-1.50582 -1.52818,-2.8154 -2.1987,-4.57024 -0.37099,-0.970915 -0.76087,-1.860165 -0.8664,-1.976111 -0.10553,-0.115947 -0.83095,0.213505 -1.61203,0.732117 -1.34653,0.894045 -1.47048,0.927855 -2.39074,0.652138 -1.45761,-0.43671 -2.18269,-0.356174 -3.00229,0.333478 -0.94465,0.794869 -1.13214,1.90994 -0.66084,3.930228 1.18232,5.06814 8.08142,14.96375 12.37617,17.75153 1.65024,1.0712 3.88324,1.89238 5.12775,1.88575 l 1.13484,-0.006 z m 26.11786,-13.06977 c 5.08507,-2.98004 0.76393,-14.531973 -9.03698,-24.158972 -3.07636,-3.021775 -6.70123,-5.695975 -9.12903,-6.734817 -1.5447,-0.660973 -3.96003,-0.907692 -5.3039,-0.541782 -1.34322,0.365729 -2.85729,1.652873 -3.43154,2.917215 -0.64248,1.414552 -0.62565,3.914099 0.0381,5.66044 2.62455,6.905272 9.66876,15.639346 16.46595,20.415996 4.18732,2.94258 8.01082,3.84056 10.39742,2.44192 z m -5.13082,-4.18346 c -6.12056,-1.86208 -15.94333,-14.001592 -15.94333,-19.703628 0,-3.025989 2.10989,-4.199173 5.34948,-2.974517 3.59762,1.360004 8.93644,6.789189 12.39705,12.606873 1.68891,2.839253 2.47372,4.887855 2.61882,6.835954 0.11641,1.563038 0.0797,1.712968 -0.60891,2.483598 -0.57864,0.64761 -0.96982,0.83942 -1.85945,0.91174 -0.61966,0.0503 -1.49881,-0.0216 -1.95366,-0.16002 z m -21.10683,1.72109 c -3.33762,-8.244591 -3.2265,-7.139744 -0.88926,-8.841759 0.76303,-0.555644 1.42736,-1.041791 1.4763,-1.080326 0.0871,-0.06864 -2.07764,-4.219839 -3.04596,-5.840932 l -0.49042,-0.821033 -0.64303,0.505801 c -0.35365,0.27819 -0.94838,0.5058 -1.32161,0.5058 -0.84752,0 -1.71428,0.892908 -2.05119,2.113076 -0.65695,2.379292 2.32276,8.867943 6.41244,13.963743 0.69573,0.86689 1.29421,1.57617 1.32997,1.57617 0.0357,0 -0.314,-0.93625 -0.77724,-2.08054 z M 159.25,177.43699 c -0.77775,-0.71146 -2.32861,-1.7274 -3.5306,-2.31285 -1.98005,-0.96442 -2.33226,-1.0518 -4.61707,-1.14546 -1.36043,-0.0558 -3.15163,0.032 -3.98046,0.1951 -1.42316,0.27999 -1.58157,0.25997 -2.84849,-0.35988 l -1.34154,-0.65635 -0.16111,-2.19511 c -0.2442,-3.32721 -1.02432,-6.15398 -2.55456,-9.25629 -1.56829,-3.17949 -3.21434,-5.45639 -5.69933,-7.88355 l -1.74,-1.6995 -0.003,-9.13573 -0.003,-9.13572 1.85418,-1.39556 c 1.01979,-0.76757 2.5371,-1.67306 3.37178,-2.01223 2.16839,-0.88109 4.32381,-2.19686 5.85716,-3.57547 1.59762,-1.4364 3.56251,-4.16692 4.04029,-5.61461 0.30816,-0.93374 0.42109,-1.03926 0.99722,-0.93182 4.39964,0.82047 9.48251,0.0175 13.68609,-2.16198 5.93013,-3.07471 9.7864,-9.03321 9.7864,-15.12138 v -1.47869 l 4.03498,-0.0491 c 2.21923,-0.027 4.40226,-0.0554 4.85117,-0.063 1.04702,-0.018 1.22723,0.3591 2.05604,4.30194 2.78744,13.26043 2.0079,27.23505 -2.25753,40.47014 -3.0341,9.41445 -7.16234,17.19133 -13.10685,24.69102 -1.5419,1.94528 -6.92365,7.82271 -7.14795,7.8063 -0.0861,-0.007 -0.78064,-0.5824 -1.5435,-1.28023 z m -6.20591,-9.87343 c 0.28958,-1.54353 0.82923,-1.9657 3.68406,-2.88211 0.20805,-0.0668 -0.31804,-0.33813 -1.16908,-0.60298 -1.68865,-0.52551 -2.21237,-1.06864 -2.49786,-2.59043 -0.24178,-1.28881 -0.47694,-1.31273 -0.80751,-0.0822 -0.38422,1.43029 -1.06158,2.08259 -2.69838,2.59855 -0.75831,0.23903 -1.32964,0.51407 -1.26961,0.61119 0.06,0.0971 0.55283,0.24754 1.09513,0.33426 1.28079,0.20481 2.43441,1.29536 2.79779,2.64482 0.32363,1.20187 0.63626,1.19062 0.86546,-0.0312 z m 8.72776,-11.57331 c 0,-0.10863 0.36186,-0.38463 0.80413,-0.61334 l 0.80413,-0.41583 -0.67486,-0.3536 c -0.37118,-0.19447 -0.86059,-0.71272 -1.08757,-1.15166 l -0.41269,-0.79807 -0.4993,0.68543 c -0.27461,0.37699 -0.8479,0.8657 -1.27396,1.08602 l -0.77467,0.4006 0.78452,0.32986 c 0.43149,0.18143 0.97618,0.7005 1.21044,1.15349 0.40319,0.7797 0.4444,0.79832 0.77287,0.34911 0.19083,-0.26098 0.34696,-0.56338 0.34696,-0.67201 z m -10.64179,-10.02943 c 0.60868,-1.2313 1.43057,-1.73849 4.09801,-2.5289 l 2.34387,-0.69455 -1.36759,-0.32247 c -1.96646,-0.46366 -3.80121,-1.2174 -4.46022,-1.83228 -0.59373,-0.55397 -1.41477,-2.97314 -1.71076,-5.04072 -0.0944,-0.65884 -0.24881,-1.19788 -0.3433,-1.19788 -0.0944,0 -0.37698,0.99298 -0.62778,2.20662 -0.80924,3.91623 -1.21869,4.39936 -4.56514,5.38662 -0.97091,0.28643 -2.049,0.60712 -2.39577,0.71263 -0.51715,0.15738 -0.26099,0.27232 1.42547,0.63959 3.80928,0.82957 4.79537,1.78884 5.50055,5.35094 0.63452,3.20515 0.64578,3.21069 1.18387,0.58254 0.26979,-1.31766 0.68324,-2.78562 0.91879,-3.26214 z m 15.17157,-8.14925 c 0.17787,-1.00559 0.5455,-2.42642 0.81697,-3.15741 0.57681,-1.55323 1.2177,-1.96733 4.53674,-2.9314 1.89207,-0.54959 2.02193,-0.62572 1.33877,-0.78482 -2.40208,-0.55942 -4.23121,-1.22484 -4.88951,-1.77877 -0.84119,-0.70782 -1.40525,-2.1789 -1.89594,-4.94468 -0.36812,-2.07492 -0.38106,-2.05871 -1.12137,1.40456 -0.2936,1.37352 -0.69073,2.73532 -0.8825,3.02623 -0.37819,0.57369 -3.15953,1.74431 -5.27442,2.21993 l -1.31957,0.29676 1.13483,0.22952 c 2.02124,0.40882 4.19469,1.1897 4.74919,1.70629 0.29772,0.27737 0.70589,0.82256 0.90704,1.21154 0.42104,0.81421 1.15278,3.80758 1.15278,4.71578 0,1.25945 0.43439,0.55374 0.74699,-1.21353 z m 11.65329,-19.01604 c 0.91425,-0.82739 0.39329,-2.35668 -0.8028,-2.35668 -1.47425,0 -1.86519,1.74371 -0.56127,2.50339 0.61116,0.35606 0.83511,0.33198 1.36407,-0.14671 z M 36.636268,162.00156 C 29.165942,149.53658 25.207941,134.09338 25.66978,119.21289 26.118784,104.74595 30.5527,90.861368 38.594607,78.739427 50.307581,61.083918 68.221875,49.258616 89.772897,44.956421 c 5.966712,-1.191124 9.2064,-1.49806 15.761593,-1.493286 12.58791,0.0091 23.9177,2.580369 34.50851,7.831423 1.84998,0.917243 3.41781,1.808986 3.48407,1.981652 0.0662,0.172665 -0.32523,1.205702 -0.86998,2.295635 -0.80297,1.606619 -3.32647,7.708366 -3.90933,9.452656 -0.0952,0.28496 -0.58467,0.463659 -1.60701,0.586709 -2.26027,0.272053 -3.57533,0.636831 -5.57394,1.546122 -4.90811,2.233002 -8.53608,7.091193 -9.03348,12.096678 -0.15496,1.55944 -0.27913,1.867827 -1.12564,2.795732 -1.06538,1.167801 -1.69505,2.268499 -2.12755,3.719051 -0.28348,0.950781 -0.34494,0.992671 -2.11616,1.44248 -2.40617,0.611053 -4.11072,1.560596 -5.83857,3.252476 -1.68881,1.653645 -2.62132,3.175408 -3.09445,5.049824 l -0.34856,1.380906 -3.38058,2.374136 c -7.451214,5.232895 -14.582391,10.191915 -21.537932,14.977495 -4.022358,2.76747 -8.13155,5.64057 -9.131536,6.38463 -0.999987,0.74407 -2.558946,1.63169 -3.464352,1.97248 -4.836113,1.82031 -9.206573,5.8428 -11.471314,10.55799 -0.98888,2.05884 -1.78181,4.62456 -1.78181,5.76548 0,0.49685 -0.277452,0.72186 -1.601164,1.29853 -3.057342,1.33192 -5.581747,4.16699 -6.719895,7.54686 -0.490484,1.45655 -0.555571,2.06226 -0.45222,4.20855 l 0.120727,2.50712 -0.985361,0.16647 c -0.541949,0.0916 -1.753942,0.55098 -2.693319,1.02093 -3.03228,1.51699 -5.463659,4.63974 -6.048051,7.76783 -0.121924,0.65263 -0.264259,1.22917 -0.316301,1.28122 -0.05204,0.052 -0.854403,-1.17315 -1.783024,-2.72264 z m 6.367279,-21.54205 c 0.417399,-1.76049 1.259702,-2.69101 2.786178,-3.078 2.167819,-0.54957 2.200601,-0.63711 0.419126,-1.11934 -2.079913,-0.56301 -2.612087,-1.06205 -3.133873,-2.93882 -0.229552,-0.82565 -0.494186,-1.50119 -0.588077,-1.50119 -0.09389,0 -0.307031,0.59579 -0.473645,1.32398 -0.166615,0.72818 -0.440011,1.50513 -0.607548,1.72654 -0.396794,0.5244 -1.523061,1.07839 -3.011025,1.48106 -1.40554,0.38037 -1.367025,0.64455 0.126626,0.86854 0.595707,0.0893 1.454826,0.38848 1.909155,0.66478 0.896811,0.54538 1.790904,2.19903 1.799929,3.32901 0.0093,1.16629 0.410291,0.77391 0.773154,-0.75656 z m -5.761136,-12.9346 c 0.180448,-0.006 0.03227,-0.17088 -0.329291,-0.3674 -0.361558,-0.19652 -0.854662,-0.65839 -1.095784,-1.02639 l -0.438404,-0.6691 -0.957302,0.93479 -0.957302,0.93478 0.918251,0.96974 0.918252,0.96975 0.806745,-0.86804 c 0.44371,-0.47741 0.954386,-0.87257 1.134835,-0.87813 z M 54.119347,116.7305 c 0.291769,-0.87986 0.859945,-1.97497 1.262613,-2.43358 0.887708,-1.01105 3.135255,-1.95442 6.120072,-2.56881 1.193317,-0.24564 2.169286,-0.50615 2.168822,-0.57892 -4.66e-4,-0.0728 -1.010677,-0.32835 -2.244914,-0.56793 -2.899291,-0.56279 -4.894,-1.31876 -5.968108,-2.26184 -1.005366,-0.88272 -1.675241,-2.78465 -2.290274,-6.50262 -0.218399,-1.32026 -0.45473,-2.570691 -0.525181,-2.778744 -0.07045,-0.208054 -0.336116,0.804327 -0.590368,2.249734 -0.70351,3.99939 -1.400561,6.05084 -2.365088,6.9605 -0.830257,0.78303 -3.618902,1.78997 -6.694433,2.41725 -2.236686,0.4562 -2.24618,0.52336 -0.126093,0.89215 4.371512,0.76042 6.704854,1.96004 7.663265,3.93986 0.563892,1.16485 1.787413,6.12814 1.791407,7.26695 0.0056,1.59815 0.39332,0.77898 0.811629,-1.7148 0.25089,-1.4957 0.694883,-3.43935 0.986651,-4.3192 z m 20.665092,-4.83986 c 0.614104,-0.32866 0.654749,-1.65832 0.07043,-2.30399 -1.276105,-1.41008 -3.269257,0.39655 -2.090604,1.89495 0.556616,0.70763 1.213672,0.84067 2.020177,0.40904 z m 12.986295,-7.68279 c -0.167973,-0.1387 -0.506299,-0.56086 -0.751836,-0.93813 l -0.446433,-0.68597 -0.824136,0.87384 -0.824136,0.87384 0.779301,0.83409 0.779301,0.83411 0.796673,-0.7698 c 0.597366,-0.57721 0.720267,-0.83288 0.491266,-1.02198 z m -48.261652,0.0285 0.854186,-0.85417 -0.513735,-0.48234 c -0.282554,-0.26528 -0.648544,-0.70366 -0.813311,-0.97416 -0.285754,-0.46913 -0.330231,-0.45401 -0.963974,0.32778 -0.365418,0.45078 -0.826397,0.81961 -1.024397,0.81961 -0.540021,0 -0.433226,0.44713 0.15109,0.63259 0.281098,0.0892 0.691342,0.43731 0.911652,0.77354 0.220311,0.33624 0.432905,0.61134 0.472434,0.61134 0.03953,0 0.456254,-0.38438 0.926055,-0.85419 z m 30.08864,-6.08965 c 0.458065,-1.230227 1.316673,-1.788131 3.909211,-2.54012 l 1.891391,-0.548616 -1.134835,-0.293515 c -4.005321,-1.035942 -4.56667,-1.472316 -5.14072,-3.996219 -0.224048,-0.985065 -0.407361,-1.989919 -0.407361,-2.233008 0,-0.901827 -0.427202,0.08718 -0.859432,1.989668 -0.243977,1.073872 -0.634345,2.188063 -0.867486,2.475978 -0.245126,0.302718 -1.479077,0.876837 -2.925954,1.361354 l -2.502063,0.83787 1.496937,0.30928 c 2.4931,0.515098 3.733874,1.285786 4.337906,2.694428 0.285976,0.666915 0.595346,1.666506 0.687487,2.22131 0.292147,1.75909 0.432115,1.80385 0.788518,0.25218 0.19115,-0.832203 0.518031,-1.970972 0.726401,-2.53059 z m 12.008913,-2.416784 c 0.297083,-0.297083 0.42742,-0.604869 0.293679,-0.69351 -0.132252,-0.08766 -0.353733,-0.366865 -0.49218,-0.620468 -0.233862,-0.428381 -0.281814,-0.415166 -0.675889,0.186266 -0.351396,0.536298 -0.369819,0.734386 -0.107387,1.154605 0.387238,0.62007 0.333338,0.621546 0.981777,-0.0269 z M 99.97782,90.852415 c 0.17633,-0.212469 0.78945,-0.519445 1.36248,-0.682166 1.52154,-0.432071 1.5788,-0.605234 0.31699,-0.958523 -1.394,-0.390293 -2.037875,-1.058071 -2.440146,-2.530721 l -0.309992,-1.134835 -0.34342,0.882649 c -0.714077,1.835307 -0.945707,2.089053 -2.337469,2.560657 -0.75041,0.254279 -1.416744,0.514688 -1.480741,0.578685 -0.06399,0.06399 0.39071,0.244041 1.010462,0.400096 1.494747,0.376382 2.395623,1.257085 2.758009,2.696254 l 0.295651,1.174138 0.423785,-1.299964 c 0.233081,-0.714979 0.568057,-1.473802 0.744391,-1.68627 z m -54.635682,1.061439 0.802669,-0.819603 -0.81175,-0.834553 -0.811749,-0.834554 -0.836602,0.832818 -0.836602,0.832817 0.765702,0.804006 c 0.421136,0.442203 0.801693,0.811806 0.845683,0.821339 0.04399,0.0095 0.441182,-0.351488 0.882649,-0.80227 z M 56.243177,84.30993 c 0.283427,-0.197223 1.162923,-0.54685 1.954437,-0.77695 0.791514,-0.230099 1.439116,-0.458999 1.439116,-0.508665 0,-0.04967 -0.616612,-0.269557 -1.370249,-0.488645 -1.937422,-0.563224 -2.828155,-1.399092 -3.332066,-3.126828 l -0.41656,-1.428236 -0.472738,1.38702 c -0.620256,1.819832 -1.236566,2.390401 -3.362533,3.112967 l -1.763737,0.599454 1.465243,0.308396 c 2.038493,0.42905 3.092025,1.398019 3.632101,3.340566 l 0.415494,1.494453 0.648085,-1.777473 c 0.356447,-0.97761 0.87998,-1.938836 1.163407,-2.136059 z m 34.799782,-2.486899 c 0.344197,-0.344198 1.135481,-0.768512 1.758406,-0.94292 0.622926,-0.174409 1.132593,-0.392305 1.132593,-0.484214 0,-0.09191 -0.517124,-0.305415 -1.149163,-0.47446 -1.328364,-0.355283 -2.293176,-1.211294 -2.518334,-2.234345 -0.305716,-1.389073 -0.404466,-1.513862 -0.665771,-0.841321 -0.903311,2.324924 -1.044222,2.449712 -3.862761,3.420794 -0.399627,0.137685 -0.254109,0.240643 0.700695,0.49577 2.075665,0.554623 2.563491,1.069469 3.099074,3.270722 l 0.184076,0.756556 0.347685,-1.170384 c 0.191226,-0.643711 0.629302,-1.452 0.9735,-1.796198 z m 22.662741,-0.30283 0.82395,-0.87365 -0.80592,-0.78113 -0.80592,-0.781128 -0.77609,0.776098 -0.7761,0.776097 0.61504,0.615033 c 0.33826,0.338269 0.61503,0.733675 0.61503,0.878682 0,0.44015 0.24826,0.303717 1.11001,-0.610002 z M 77.157025,78.080764 c 0.359133,-0.367603 0.334003,-0.470598 -0.277741,-1.138267 l -0.672604,-0.734094 -0.726365,0.678526 -0.726364,0.678525 0.637418,0.637419 c 0.35058,0.35058 0.641027,0.78443 0.645439,0.964112 0.0047,0.188941 0.159256,0.114021 0.366687,-0.177676 0.197267,-0.277404 0.536355,-0.68625 0.75353,-0.908545 z m 27.805795,-7.067982 c 0.77421,-1.750225 1.61585,-2.198076 6.62412,-3.524769 l 1.13484,-0.300619 -1.6392,-0.314611 c -1.87957,-0.36074 -4.33781,-1.185339 -5.18133,-1.738037 -0.72311,-0.473797 -1.4843,-2.481448 -2.03189,-5.359152 -0.60294,-3.168488 -0.631,-3.195027 -1.01641,-0.961125 -0.52233,3.027412 -1.25717,5.24364 -1.9565,5.900629 -0.68763,0.645996 -5.180923,2.289606 -6.268982,2.293145 -1.265499,0.0041 -0.717964,0.414939 0.966738,0.725357 3.635341,0.669838 5.389454,1.639579 6.169294,3.410605 0.25091,0.569853 0.64844,2.114189 0.88339,3.431858 0.23494,1.31767 0.4815,2.565987 0.54793,2.77404 0.0664,0.208053 0.37706,-0.87429 0.69033,-2.405208 0.31327,-1.530918 0.79822,-3.300369 1.07767,-3.932113 z m -45.511495,2.617585 c 0.362124,-0.402416 0.358595,-0.488697 -0.04001,-0.978645 L 58.974164,72.1144 58.437369,72.67213 c -0.502857,0.522466 -0.509814,0.582994 -0.110039,0.95734 0.559204,0.523637 0.653531,0.523713 1.123999,8.97e-4 z m 13.655245,-5.9201 c 0.356975,-1.988079 0.845416,-2.718434 2.2401,-3.349569 0.72192,-0.326688 1.746621,-0.672733 2.277114,-0.768988 1.217951,-0.22099 0.980184,-0.42332 -1.155157,-0.982996 -2.037634,-0.534069 -2.75951,-1.254694 -3.217648,-3.212078 -0.491855,-2.10144 -0.664614,-2.221675 -0.983702,-0.684633 -0.529114,2.548728 -1.69305,3.652517 -4.371472,4.145571 -1.249647,0.230041 -1.198198,0.526823 0.126093,0.727361 1.299202,0.196739 2.874242,1.055813 3.510936,1.914968 0.257995,0.34814 0.60173,1.346256 0.763854,2.218036 0.303363,1.631254 0.515963,1.62924 0.809882,-0.0076 z m 49.74887,-6.258231 c 0.24917,-0.421815 0.7164,-0.833033 1.03826,-0.913817 0.58083,-0.145778 0.57896,-0.152827 -0.24965,-0.940693 -0.45917,-0.436598 -0.96512,-1.018361 -1.12433,-1.292806 -0.27837,-0.479853 -0.29935,-0.473844 -0.54679,0.156696 -0.14153,0.360629 -0.63,0.891652 -1.0855,1.180052 l -0.82817,0.524363 0.67743,0.308657 c 0.37258,0.169762 0.82042,0.631718 0.9952,1.026572 0.40162,0.907317 0.56278,0.900286 1.12355,-0.04902 z M 90.40336,57.175264 c 0.514627,-0.961589 -0.297699,-1.770136 -1.366395,-1.360039 -0.39628,0.152067 -0.561392,1.365674 -0.230779,1.696286 0.354211,0.354212 1.338558,0.146981 1.597174,-0.336247 z m 111.3399,44.949646 c -0.27741,-0.0543 -2.88753,-0.6501 -5.80027,-1.324 -2.91275,-0.67391 -6.26051,-1.421616 -7.43948,-1.661583 -1.17896,-0.239967 -2.22021,-0.502775 -2.31388,-0.584019 -0.1732,-0.150218 0.24772,-2.649554 1.31385,-7.801483 l 0.59231,-2.862241 0.77128,0.137022 c 1.39605,0.248016 15.52057,3.608281 15.62157,3.716421 0.10697,0.114517 -1.99416,10.299043 -2.14782,10.410813 -0.0513,0.0373 -0.32016,0.0234 -0.59756,-0.0309 z m -0.63047,-2.189322 c 0,-0.199867 -0.11348,-0.433531 -0.25218,-0.519254 -0.1387,-0.08573 -0.25219,0.0778 -0.25219,0.363395 0,0.285591 0.11349,0.519251 0.25219,0.519251 0.1387,0 0.25218,-0.16353 0.25218,-0.363392 z m -1.98618,-2.982265 c -0.24907,-0.24721 -0.27804,-0.218243 -0.14118,0.141171 0.0947,0.24871 0.23572,0.388674 0.31336,0.311029 0.0777,-0.07764 1.6e-4,-0.281135 -0.17218,-0.4522 z m -9.21212,-0.645803 c 1.38962,-0.900717 2.39987,-1.808803 2.0123,-1.808803 -0.093,0 -0.75943,0.371395 -1.48094,0.825324 -0.72153,0.453927 -1.63034,0.965086 -2.0196,1.135907 -0.38925,0.170821 -0.63789,0.423585 -0.55253,0.561697 0.24144,0.39065 0.44766,0.318485 2.04077,-0.714125 z m 7.1869,-0.01364 c 0.7499,-0.260976 2.24789,-0.902893 3.32887,-1.42648 2.88005,-1.394992 2.10739,-1.628809 -1.36717,-0.413733 -1.57736,0.551609 -3.10502,1.072973 -3.39483,1.158587 -0.42106,0.124391 -1.05432,-0.350234 -3.15231,-2.362621 -2.89759,-2.779361 -3.98857,-3.339825 -2.10936,-1.083637 2.21475,2.659048 4.2399,4.602386 4.79612,4.602386 0.29438,0 1.14878,-0.213526 1.89868,-0.474502 z m -26.74922,-1.447175 c -0.18154,-0.676853 -0.34227,-1.333711 -0.35718,-1.459686 -0.0392,-0.331205 11.53214,-1.913785 11.82822,-1.617713 0.0563,0.05636 0.19824,0.904349 0.31529,1.884421 l 0.21282,1.78195 -3.92204,0.16817 c -2.15713,0.09249 -4.78268,0.236869 -5.83455,0.320834 l -1.91249,0.152665 z m -6.17546,-9.106932 c -0.35176,-0.517655 -0.63955,-1.061453 -0.63955,-1.20844 0,-0.278158 5.25821,-3.146266 5.76817,-3.146266 0.34759,0 1.60175,2.730707 1.40234,3.053352 -0.0765,0.123783 -0.25166,0.225059 -0.38925,0.225059 -0.13759,0 -1.31668,0.453934 -2.62021,1.008743 -1.30352,0.554808 -2.48522,1.008742 -2.626,1.008742 -0.14077,0 -0.54375,-0.423536 -0.8955,-0.94119 z m 11.08236,-0.887155 c -0.21838,-0.598795 -2.11994,-8.614252 -2.05824,-8.675946 0.034,-0.03404 1.07954,-0.294571 2.32334,-0.578971 2.76514,-0.632259 5.32889,-1.239245 9.40337,-2.226316 l 3.10695,-0.752677 0.22744,0.5982 c 0.37475,0.985667 1.84305,8.668243 1.68659,8.824708 -0.0797,0.07966 -2.05453,0.5255 -4.38858,0.990739 -2.33404,0.465239 -5.43529,1.135904 -6.89166,1.490365 -3.03432,0.738515 -3.25248,0.759626 -3.40921,0.329898 z m 2.78694,-3.089273 c 0.64837,-1.040265 1.34098,-1.891391 1.53912,-1.891391 0.19815,0 0.77139,0.171772 1.27385,0.381714 0.82799,0.345953 0.97489,0.342563 1.56806,-0.03619 0.97775,-0.624322 4.56336,-4.386634 4.56336,-4.788254 0,-0.560991 -0.34697,-0.409641 -1.2745,0.55593 -0.47798,0.497597 -1.58781,1.479512 -2.46627,2.182032 l -1.5972,1.277311 -1.17684,-0.284846 c -0.64726,-0.156665 -2.05634,-0.562377 -3.13128,-0.901582 -1.07494,-0.339204 -1.95444,-0.508475 -1.95444,-0.376158 0,0.132317 0.1986,0.308149 0.44132,0.390737 1.45161,0.49391 3.12823,1.41938 2.86553,1.581734 -0.16417,0.101463 -0.53339,0.629229 -0.82049,1.172815 -0.2871,0.543584 -0.72256,1.215303 -0.96771,1.492707 -0.36981,0.418486 -0.45095,1.134835 -0.12853,1.134835 0.0479,0 0.61765,-0.851126 1.26602,-1.891392 z m 10.20532,-1.260927 c 0,-0.208053 -0.17586,-0.378278 -0.3908,-0.378278 -0.21494,0 -0.75399,-0.184658 -1.19788,-0.41035 -0.95064,-0.483342 -0.85724,-0.344188 0.33898,0.505057 1.03857,0.73732 1.2497,0.785228 1.2497,0.283571 z m 7.81775,-0.213443 c 0,-1.712468 -0.0738,-4.152362 -0.16386,-5.421988 l -0.16385,-2.308412 h 8.57261 8.5726 l 0.15577,4.143433 c 0.0857,2.278888 0.0876,4.718783 0.005,5.421988 l -0.15142,1.278555 h -8.41309 -8.41309 z m 4.7542,-1.481862 c 0.18753,-0.264488 0.27264,-0.549205 0.18915,-0.632703 -0.0835,-0.0835 -0.1802,-0.101713 -0.21487,-0.04047 -0.0347,0.06124 -0.72924,0.806521 -1.54348,1.656187 -0.84453,0.881281 -1.40514,1.666658 -1.30516,1.828435 0.15969,0.258393 1.91534,-1.458822 2.87436,-2.811444 z m 10.62912,2.563071 c 0,-0.130516 -0.17023,-0.237302 -0.37828,-0.237302 -0.38998,0 -0.50102,0.29757 -0.21701,0.581577 0.20148,0.201479 0.59529,-0.02628 0.59529,-0.344275 z m -4.41325,-3.082361 c 2.62007,-1.717781 4.39107,-3.033116 4.40341,-3.270439 0.0229,-0.439565 -0.75906,-0.09123 -3.538,1.576159 -1.61818,0.970914 -3.13192,1.765299 -3.36389,1.765299 -0.50446,0 -1.96696,-0.727018 -3.75849,-1.868364 -3.2225,-2.052981 -3.96852,-2.03166 -1.24555,0.0356 2.11343,1.604501 4.57064,3.095198 5.09192,3.089077 0.21621,-0.0026 1.30098,-0.599837 2.4106,-1.32733 z m 2.26967,0.827575 c -0.0857,-0.138702 -0.26935,-0.252186 -0.40805,-0.252186 -0.1387,0 -0.18205,0.113484 -0.0963,0.252186 0.0857,0.138702 0.26935,0.252186 0.40805,0.252186 0.1387,0 0.18205,-0.113484 0.0963,-0.252186 z m -50.33758,-1.294481 -0.82551,-1.042295 1.11955,-0.978599 c 2.92165,-2.553799 10.57048,-7.931916 10.80348,-7.596245 0.0832,0.119884 0.52013,0.74364 0.97091,1.386126 0.45078,0.642485 0.81961,1.224604 0.81961,1.293597 0,0.06899 -0.70928,0.552084 -1.57616,1.073533 -1.97208,1.186243 -7.197,4.657413 -8.94182,5.940495 -0.72226,0.531126 -1.36526,0.965683 -1.42887,0.965683 -0.0637,0 -0.48716,-0.469032 -0.94119,-1.042295 z m -3.90983,-10.226816 c -1.64929,-1.31706 -3.03526,-2.430381 -3.07995,-2.474046 -0.12483,-0.121977 1.03163,-1.875067 2.1633,-3.279363 4.64268,-5.76112 5.93014,-7.322366 6.08661,-7.380926 0.17793,-0.0666 6.41458,5.011059 6.67764,5.436711 0.11663,0.1887 -2.0162,2.639608 -7.54146,8.666194 l -1.30745,1.426084 z m 3.03716,-1.352661 c 0.0696,-1.033391 0.13017,-2.066171 0.13461,-2.295065 0.006,-0.288706 0.39477,-0.508937 1.27061,-0.719048 1.01247,-0.242888 1.28719,-0.422692 1.38702,-0.907802 0.42241,-2.052599 0.22539,-1.875205 2.03897,-1.835881 0.99401,0.02155 1.7697,-0.08436 1.9489,-0.266114 0.23084,-0.234124 -0.12703,-0.288354 -1.59371,-0.241507 l -1.89139,0.06041 -0.12609,-1.619727 c -0.14137,-1.815866 -0.36668,-1.492455 -0.6285,0.902129 -0.27713,2.534511 -0.32908,2.631678 -1.74088,3.256045 -0.71354,0.315559 -1.91924,0.775712 -2.67935,1.022563 -0.7601,0.246852 -1.48982,0.548355 -1.62158,0.670008 -0.36347,0.335568 0.85751,0.248518 1.94183,-0.138443 l 0.9457,-0.337493 v 2.071829 c 0,1.798083 0.14198,2.602338 0.41178,2.332532 0.0416,-0.04155 0.13249,-0.921046 0.20208,-1.954438 z m 18.20787,1.543217 -0.68714,-1.262514 2.53053,-1.269878 c 2.39419,-1.201466 7.34302,-3.28548 7.8019,-3.28548 0.2891,0 1.37012,2.872342 1.1155,2.963968 -0.34145,0.122874 -9.51547,3.857913 -9.80371,3.991405 -0.14846,0.06876 -0.57915,-0.443118 -0.95708,-1.137501 z m -31.00168,0.406095 c -1.38145,-0.566938 -1.38312,-0.308551 0.0255,-3.954298 0.82147,-2.12616 4.18344,-9.181828 4.78146,-10.034705 0.17431,-0.248597 0.59117,-0.05842 1.76328,0.804445 l 1.53502,1.13001 -1.38426,2.095688 c -0.76134,1.152628 -2.3154,3.975547 -3.45346,6.273154 l -2.06922,4.177468 z m 48.11858,-2.271622 c -0.0512,-0.16261 -0.50058,-2.338358 -0.99868,-4.834995 -0.49809,-2.496636 -0.96543,-4.766306 -1.03852,-5.043709 -0.12333,-0.468054 0.20845,-0.573515 4.60774,-1.464631 2.60734,-0.528142 6.3629,-1.307952 8.34565,-1.732908 1.98276,-0.424958 3.6486,-0.729072 3.70186,-0.67581 0.0533,0.05326 0.49849,2.417355 0.98941,5.253539 0.92876,5.365787 0.92317,5.541709 -0.17673,5.551049 -0.34331,0.003 -11.86022,2.430255 -14.88094,3.136355 -0.25122,0.05872 -0.49863,-0.02628 -0.54979,-0.18889 z m 3.14994,-3.763207 c 0.75766,-1.144291 1.39163,-2.111341 1.40881,-2.148998 0.0172,-0.03766 0.66329,0.173397 1.43578,0.46901 1.58892,0.608047 1.55856,0.618272 3.4908,-1.175452 1.21889,-1.131501 4.00439,-4.259454 4.00439,-4.496695 0,-0.311244 -0.45161,-0.131111 -1.04553,0.417035 -2.70712,2.498481 -5.06847,4.476292 -5.34433,4.476292 -0.42264,0 -3.45576,-1.045296 -5.04244,-1.737761 -0.67033,-0.29255 -1.33676,-0.531908 -1.48094,-0.531908 -0.47641,0 0.28828,0.689571 1.13193,1.020741 0.44618,0.175147 1.17809,0.535847 1.62647,0.801556 l 0.81523,0.483106 -1.2525,1.856141 c -0.68889,1.020878 -1.36968,1.928546 -1.51286,2.017043 -0.2668,0.16489 -0.11266,0.630421 0.20874,0.630421 0.0984,0 0.7988,-0.936239 1.55645,-2.080531 z m 11.34852,-1.044806 c 0,-0.193215 -0.1795,-0.420182 -0.3989,-0.504372 -0.75243,-0.288734 -0.93982,-0.152654 -0.48375,0.351297 0.53297,0.588925 0.88265,0.649567 0.88265,0.153075 z m -35.66132,-2.07367 -2.24676,-2.389196 0.98583,-1.023471 c 1.74745,-1.814188 7.38759,-7.024106 7.59442,-7.01513 0.11022,0.0048 0.93805,0.918167 1.83961,2.02974 0.90156,1.111573 1.89455,2.262276 2.20662,2.557117 0.31208,0.294841 0.56742,0.615698 0.56742,0.713014 0,0.259681 -8.30542,7.568385 -8.56259,7.535007 -0.0758,-0.0098 -1.14884,-1.093024 -2.38455,-2.407081 z m 3.00067,-0.538213 c 0.0879,-0.797537 0.18192,-1.616216 0.20899,-1.819288 0.0272,-0.203304 0.48838,-0.473073 1.02644,-0.600324 0.81529,-0.192812 1.04071,-0.392783 1.36052,-1.206938 l 0.38332,-0.975835 h 1.61584 c 1.13526,0 1.56354,-0.08461 1.44002,-0.28447 -0.11604,-0.187754 -0.66887,-0.232936 -1.626,-0.132895 l -1.45019,0.151574 0.21808,-0.938893 c 0.11994,-0.516391 0.22079,-1.216928 0.22409,-1.556748 0.01,-1.019655 -0.42465,-0.274956 -0.87565,1.500504 -0.62456,2.458722 -0.81884,2.658831 -3.08046,3.172769 -2.46816,0.560876 -3.00459,0.977904 -1.01037,0.785478 l 1.45825,-0.140708 -0.14609,0.928318 c -0.0804,0.510574 -0.20266,1.297138 -0.27178,1.747919 -0.0691,0.450782 -0.0153,0.819603 0.11977,0.819603 0.135,0 0.31736,-0.652529 0.40522,-1.450066 z m -9.51737,-5.74791 c -0.52013,-0.483311 -0.9457,-0.973779 -0.9457,-1.089929 0,-0.289923 2.30758,-3.348657 3.9864,-5.284026 l 1.38193,-1.593122 1.09861,1.07821 c 0.60425,0.593017 1.09862,1.144578 1.09862,1.225692 0,0.172194 -5.31049,6.4035 -5.5277,6.486171 -0.0805,0.03066 -0.57203,-0.339685 -1.09216,-0.822996 z m 22.22433,-1.943747 c -0.47295,-0.728186 -1.69256,-2.535738 -2.71023,-4.016782 -1.01768,-1.481044 -1.77383,-2.81657 -1.68034,-2.967836 0.0935,-0.151264 3.20146,-2.298313 6.90661,-4.771217 l 6.73664,-4.496192 2.13514,3.643865 c 1.17433,2.004126 2.36211,4.03259 2.63951,4.507698 l 0.50437,0.863833 -0.58686,0.450227 c -0.8018,0.615116 -12.76136,8.110377 -12.94105,8.110377 -0.0791,0 -0.53085,-0.595788 -1.00379,-1.323973 z m 2.1334,-1.765299 c 0.20833,-0.589484 0.58654,-1.752689 0.84047,-2.584901 l 0.46167,-1.513113 1.4874,-0.126093 c 0.95384,-0.08086 1.56396,-0.261785 1.70085,-0.504371 0.62869,-1.114129 2.50144,-6.153897 2.42062,-6.514153 -0.0533,-0.237567 -0.79305,0.9675 -1.6981,2.766215 l -1.60366,3.187162 -1.12571,0.154296 c -0.61913,0.08486 -1.87588,0.155543 -2.79275,0.15707 -0.91689,0.0015 -2.11609,0.07693 -2.66489,0.16755 -1.42489,0.235294 -0.50148,0.545673 1.69134,0.568506 1.27551,0.01328 1.70225,0.105485 1.70225,0.367792 0,0.192537 -0.28371,1.329086 -0.63046,2.525666 -0.71818,2.478281 -0.7086,2.420163 -0.39914,2.420163 0.12723,0 0.40179,-0.482305 0.61011,-1.071789 z m 10.25473,-6.241591 c 0,-0.138702 -0.17023,-0.252185 -0.37828,-0.252185 -0.20806,0 -0.37828,0.113483 -0.37828,0.252185 0,0.138702 0.17022,0.252186 0.37828,0.252186 0.20805,0 0.37828,-0.113484 0.37828,-0.252186 z m -50.36131,5.734915 c -2.09686,-1.281726 -4.05848,-2.501395 -4.35916,-2.710376 -0.54248,-0.377046 -0.52499,-0.413869 2.27525,-4.791525 1.55207,-2.426357 3.56424,-5.603135 4.47151,-7.059506 0.90725,-1.456371 1.77565,-2.787531 1.92976,-2.958132 0.21617,-0.239309 1.20126,0.326552 4.31121,2.476472 2.21705,1.532662 4.11129,2.864676 4.20944,2.960032 0.0981,0.09536 -0.69625,1.55294 -1.76531,3.239074 -2.73299,4.310556 -6.90173,10.764867 -7.09666,10.987538 -0.09,0.102759 -1.87918,-0.86185 -3.97604,-2.143577 z m 3.69791,-0.24988 c -0.005,-0.173378 -0.15625,-1.431505 -0.33614,-2.795838 -0.36878,-2.797038 -0.39151,-2.749786 1.66919,-3.469137 0.92349,-0.32237 0.94579,-0.360033 0.94956,-1.603437 0.005,-1.504727 0.16204,-1.813457 1.00488,-1.970102 l 0.63047,-0.117173 -0.66052,-0.03434 c -0.55848,-0.02903 -0.68466,-0.18044 -0.81682,-0.980039 -0.086,-0.520132 -0.15757,-1.541483 -0.15909,-2.269669 -0.002,-0.728185 -0.10046,-1.323974 -0.21984,-1.323974 -0.24889,0 -0.53277,2.054632 -0.54008,3.908875 -0.0118,3.005133 0.0403,2.931053 -3.55336,5.047921 -2.81316,1.657103 -3.8625,2.391551 -3.41695,2.391551 0.2201,0 2.54767,-1.006339 3.26862,-1.413205 0.39103,-0.22068 0.76029,-0.351913 0.82058,-0.29163 0.11675,0.116749 0.47095,2.06257 0.73497,4.037551 0.0881,0.658835 0.26667,1.197882 0.39687,1.197882 0.13021,0 0.23265,-0.141855 0.22766,-0.315232 z m 6.94418,-10.78093 c 0.0857,-0.138702 -0.0845,-0.252186 -0.37828,-0.252186 -0.29378,0 -0.464,0.113484 -0.37827,0.252186 0.0857,0.138702 0.25594,0.252185 0.37827,0.252185 0.12234,0 0.29256,-0.113483 0.37828,-0.252185 z m 10.71789,2.62822 c -1.73378,-1.316154 -3.46371,-2.702763 -3.84431,-3.081354 l -0.69198,-0.688347 2.70946,-3.428063 c 1.49021,-1.885435 3.88684,-4.921763 5.32585,-6.747395 2.27566,-2.887077 2.66975,-3.278198 3.02622,-3.003462 1.13606,0.875555 6.51844,5.48968 6.89048,5.906959 0.41014,0.460018 0.30397,0.635173 -2.52186,4.160736 -4.36976,5.451789 -6.61601,8.309403 -6.94201,8.831415 -0.15972,0.255751 -0.40496,0.459941 -0.54497,0.453758 -0.14001,-0.0062 -1.67311,-1.088094 -3.40688,-2.404247 z m 3.40443,-2.62934 -0.17729,-2.713802 1.47193,-0.490642 c 1.54251,-0.514171 1.53469,-0.503781 1.96441,-2.611617 0.099,-0.485777 0.36973,-0.716947 1.08445,-0.92607 l 0.95246,-0.278692 -0.88265,0.04342 c -0.48545,0.02388 -0.86628,-0.07007 -0.84628,-0.208765 0.02,-0.138702 0.11692,-1.188424 0.21538,-2.332716 0.21001,-2.440608 -0.18072,-2.857174 -0.59136,-0.630464 -0.547,2.966068 -1.08396,5.239137 -1.28595,5.443608 -0.24956,0.252639 -3.30498,1.59397 -5.49868,2.413923 -0.86688,0.324023 -1.57615,0.678155 -1.57615,0.786961 0,0.108806 0.19859,0.151777 0.44132,0.09549 1.29967,-0.301367 3.27072,-0.834336 3.65669,-0.988762 0.37966,-0.151902 0.44158,-0.02305 0.44312,0.922196 0.004,2.068081 0.31826,4.491091 0.56393,4.339265 0.14824,-0.09163 0.17329,-1.20054 0.0646,-2.863337 z m 7.71169,-7.773961 c -0.7066,-0.103846 -1.00948,0.161863 -0.52549,0.460988 0.22647,0.139968 0.49961,0.111162 0.72782,-0.07676 0.30805,-0.253657 0.27633,-0.313882 -0.20233,-0.38423 z"
         id="path5"
         inkscape:label="cannon" /></g></g></svg>
